<?xml version="1.0" encoding="utf-8"?>
<!-- Generator: Adobe Illustrator 18.0.0, SVG Export Plug-In . SVG Version: 6.00 Build 0)  -->
<!DOCTYPE svg PUBLIC "-//W3C//DTD SVG 1.1//EN" "http://www.w3.org/Graphics/SVG/1.1/DTD/svg11.dtd">
<svg version="1.1" id="图层_1" xmlns="http://www.w3.org/2000/svg" xmlns:xlink="http://www.w3.org/1999/xlink" x="0px" y="0px"
	 viewBox="0 0 1024 1024" style="enable-background:new 0 0 1024 1024;" xml:space="preserve">
<style type="text/css">
	.st0{fill-rule:evenodd;clip-rule:evenodd;}
</style>
<g>
	<path class="st0" d="M435.852,257.908c0,9.988-4.993,19.973-14.979,29.96L156.227,517.561l264.646,229.693
		c14.979,14.979,14.98,34.952,4.993,49.934c-14.979,14.98-34.952,14.98-49.932,4.993L81.328,542.527
		c-9.987-4.993-14.98-14.979-14.98-29.959c0-9.988,4.993-19.973,14.98-29.96l294.606-259.653
		c14.979-14.979,39.946-9.986,49.932,4.993c4.994,14.979,9.987,24.966,9.987,29.959l0,0L435.852,257.908L435.852,257.908z
		 M865.278,257.908c0,9.988-4.993,19.973-14.98,29.96L585.652,517.561l264.646,229.693c14.98,14.979,14.981,34.952,4.994,49.934
		c-14.98,14.98-34.952,14.98-49.934,4.993L510.753,542.527c-9.987-4.993-14.98-14.979-14.98-29.959
		c0-9.988,4.994-19.973,14.98-29.96l294.605-259.653c14.98-14.979,39.948-9.986,49.934,4.993c4.992,14.98,9.987,24.966,9.987,29.959
		l0,0L865.278,257.908L865.278,257.908z"/>
</g>
</svg>
