<?xml version="1.0" encoding="utf-8"?>
<!-- Generator: Adobe Illustrator 18.0.0, SVG Export Plug-In . SVG Version: 6.00 Build 0)  -->
<!DOCTYPE svg PUBLIC "-//W3C//DTD SVG 1.1//EN" "http://www.w3.org/Graphics/SVG/1.1/DTD/svg11.dtd">
<svg version="1.1" id="图层_1" xmlns="http://www.w3.org/2000/svg" xmlns:xlink="http://www.w3.org/1999/xlink" x="0px" y="0px"
	 viewBox="0 0 1024 1024" style="enable-background:new 0 0 1024 1024;" xml:space="preserve">
<style type="text/css">
	.st0{fill-rule:evenodd;clip-rule:evenodd;}
</style>
<g>
	<polygon class="st0" points="433.979,485.949 579.989,485.949 579.989,282.579 731.212,282.579 506.984,79.209 282.755,282.579 
		433.979,282.579 433.979,485.949 	"/>
	<path class="st0" d="M892.865,512.022l-125.151-83.434h-93.863l140.795,109.507H668.637l-36.502,99.078H506.984l0,0H381.833
		l-36.502-99.078H199.322l140.795-109.507h-93.863l-125.151,83.434c-36.502,26.073-26.073,83.434-26.073,83.434l10.429,83.434
		c15.644,73.005,88.648,67.79,88.648,67.79h312.877l0,0h312.877c0,0,73.005,5.215,88.648-67.79l10.429-83.434
		C918.939,595.456,929.368,538.095,892.865,512.022L892.865,512.022z"/>
</g>
</svg>
