<svg xmlns="http://www.w3.org/2000/svg">
    <defs>
        <rect id="SVGID_1_" x="167.658" y="66.594" width="675.217" height="891.69"/>
    </defs>
    <symbol id="business" viewBox="0 0 1024 1024">
        <g> <path class="st0" d="M748.503,206.495c29.125,0,52.768,23.524,52.768,52.498V503.95L511.337,801.406h8.221H308.206
		c-29.15,0-52.755-23.418-52.755-52.32v-542.59h-17.607H748.503L748.503,206.495z M220.237,171.5v17.498v560.088
		c0,48.243,39.384,87.315,87.969,87.315h211.352h7.383l5.175-5.233l299.321-302.685l5.049-5.105v-7.159V258.993
		c0-48.292-39.4-87.493-87.983-87.493h-510.66H220.237L220.237,171.5z"/> <path class="st0" d="M783.285,645.213l66.001,66l13.566,14.504l72.55-73.096l-94.592-95.138l-71.171,74.632L783.285,645.213
		L783.285,645.213z M886.855,650.152l-26.304,26.473l-44.142-42.57l25.437-27.631L886.855,650.152L886.855,650.152z"/> <path class="st0" d="M778.903,621.633L588.002,812.535l-3.716,3.715l-1.03,5.153L565.9,908.176l-5.105,25.527l25.527-5.105
		l86.773-17.355l5.153-1.03l3.715-3.716l190.902-190.902l12.271-12.271l-12.271-12.272l-69.419-69.418l-12.272-12.272
		L778.903,621.633L778.903,621.633L778.903,621.633L778.903,621.633z M790.966,658.832l45.175,44.582L660.343,877.207
		l-56.298,12.236l14.016-57.873L790.966,658.832L790.966,658.832z"/> <path class="st0" d="M318.931,463.407h402.644c9.725,0,17.608-7.26,17.608-16.217c0-8.956-7.883-16.216-17.608-16.216H318.931
		c-9.725,0-17.608,7.26-17.608,16.216C301.322,456.147,309.206,463.407,318.931,463.407L318.931,463.407L318.931,463.407
		L318.931,463.407z"/> <path class="st0" d="M318.931,349.888h402.644c9.725,0,17.608-7.261,17.608-16.217c0-8.956-7.883-16.217-17.608-16.217H318.931
		c-9.725,0-17.608,7.261-17.608,16.217C301.322,342.627,309.206,349.888,318.931,349.888L318.931,349.888L318.931,349.888
		L318.931,349.888z"/> </g>
    </symbol>
    <symbol id="contract" viewBox="0 0 1024 1024">
        <g> <path class="st0" d="M793.859,184.954H229.978c-25.836,0-46.99,21.155-46.99,46.99v563.882c0,25.835,21.155,46.991,46.99,46.991
		h563.881c25.835,0,46.99-21.155,46.99-46.991V231.944C840.849,206.108,819.695,184.954,793.859,184.954L793.859,184.954z
		 M793.859,795.826H229.978V231.944h563.881V795.826L793.859,795.826z"/> <polygon class="st0" points="417.939,325.926 699.878,325.926 699.878,372.916 417.939,372.916 417.939,325.926 	"/> <polygon class="st0" points="323.959,325.926 370.949,325.926 370.949,372.916 323.959,372.916 323.959,325.926 	"/> <polygon class="st0" points="417.939,419.906 699.878,419.906 699.878,466.896 417.939,466.896 417.939,419.906 	"/> <polygon class="st0" points="323.959,419.906 370.949,419.906 370.949,466.896 323.959,466.896 323.959,419.906 	"/> <polygon class="st0" points="417.939,560.874 699.878,560.874 699.878,607.865 417.939,607.865 417.939,560.874 	"/> <polygon class="st0" points="323.959,560.874 370.949,560.874 370.949,607.865 323.959,607.865 323.959,560.874 	"/> <polygon class="st0" points="417.939,654.856 699.878,654.856 699.878,701.844 417.939,701.844 417.939,654.856 	"/> <polygon class="st0" points="323.959,654.856 370.949,654.856 370.949,701.844 323.959,701.844 323.959,654.856 	"/> </g>
    </symbol>
    <symbol id="down" viewBox="0 0 1024 1024">
        <g> <path class="st0" d="M559.962,807.118L921.27,445.863c26.565-26.565,26.565-69.692,0-96.268c-26.673-26.565-69.757-26.565-96.322,0
		l-313.04,312.977L198.75,349.595c-26.544-26.565-69.628-26.565-96.322,0c-26.554,26.577-26.554,69.703,0,96.268l361.318,361.255
		C490.323,833.726,533.396,833.726,559.962,807.118L559.962,807.118z"/> </g>
    </symbol>
    <symbol id="follow" viewBox="0 0 1024 1024">
        <g> <path class="st0" d="M759.692,497.741h55.783c7.654,0,13.859,6.205,13.859,13.859c0,7.654-6.205,13.859-13.859,13.859h-55.783
		c-6.944,126.742-108.49,228.288-235.232,235.232v55.783c0,7.654-6.206,13.859-13.859,13.859c-7.655,0-13.859-6.205-13.859-13.859
		v-55.783c-126.742-6.943-228.289-108.49-235.232-235.232h-55.783c-7.654,0-13.859-6.206-13.859-13.859
		c0-7.655,6.205-13.859,13.859-13.859h55.783c6.943-126.742,108.49-228.289,235.232-235.232v-55.783
		c0-7.654,6.205-13.859,13.859-13.859c7.654,0,13.859,6.205,13.859,13.859v55.783C651.201,269.452,752.747,370.999,759.692,497.741
		L759.692,497.741z M801.643,802.643v-69.337c0-7.539,6.209-13.818,13.859-13.818c7.706,0,13.859,6.181,13.859,13.818v83.238
		c0,3.756-1.553,7.207-4.047,9.729c-2.57,2.628-6.095,4.102-9.771,4.088h-83.238c-7.539,0-13.818-6.209-13.818-13.859
		c0-7.706,6.181-13.859,13.818-13.859H801.643L801.643,802.643z M801.643,220.557h-69.337c-7.539,0-13.818-6.209-13.818-13.859
		c0-7.706,6.181-13.859,13.818-13.859h83.238c3.756,0,7.206,1.553,9.729,4.047c2.55,2.509,4.089,5.96,4.089,9.771v83.238
		c0,7.54-6.209,13.818-13.859,13.818c-7.705,0-13.859-6.181-13.859-13.818V220.557L801.643,220.557z M195.885,826.273
		c-2.585-2.579-4.041-6.078-4.047-9.729v-83.238c0-7.623,6.153-13.818,13.859-13.818c7.65,0,13.859,6.279,13.859,13.818v69.337
		h69.337c7.623,0,13.818,6.154,13.818,13.859c0,7.65-6.279,13.859-13.818,13.859h-83.238c-3.657,0.01-7.168-1.436-9.757-4.019
		L195.885,826.273L195.885,826.273z M195.927,196.885c2.579-2.584,6.078-4.041,9.729-4.047h83.238
		c7.623,0,13.818,6.153,13.818,13.859c0,7.65-6.279,13.859-13.818,13.859h-69.337v69.338c0,7.623-6.154,13.818-13.859,13.818
		c-7.65,0-13.859-6.279-13.859-13.818v-83.238c0-3.811,1.525-7.262,4.019-9.757L195.927,196.885L195.927,196.885z M510.6,733.347
		c122.473,0,221.747-99.274,221.747-221.747c0-122.474-99.274-221.747-221.747-221.747c-122.474,0-221.747,99.273-221.747,221.747
		C288.853,634.073,388.127,733.347,510.6,733.347L510.6,733.347z M510.6,608.615c-53.579,0-97.014-43.435-97.014-97.014
		s43.435-97.014,97.014-97.014s97.014,43.435,97.014,97.014S564.179,608.615,510.6,608.615L510.6,608.615z M510.6,580.896
		c24.758,0.002,47.638-13.205,60.018-34.646c12.38-21.441,12.38-47.859,0-69.3c-12.38-21.442-35.259-34.649-60.018-34.647
		c-38.268,0.004-69.289,31.028-69.289,69.296S472.331,580.893,510.6,580.896L510.6,580.896z"/> </g>
    </symbol>
    <symbol id="know" viewBox="0 0 1024 1024">
        <g> <path class="st0" d="M910.189,682.803L781.002,510.718c21.943-42.104,34.526-89.855,34.526-140.579
		c0-168.419-137.063-305.484-305.531-305.484c-168.419,0-305.482,137.065-305.482,305.484c0,51.02,12.73,99.071,34.923,141.373
		L110.842,682.803c-5.152,6.836-6.588,15.752-3.913,23.875c2.625,8.125,9.064,14.415,17.238,16.843l111.702,33.783l56.173,105.51
		c4.111,7.728,11.839,12.879,20.557,13.771c0.841,0.05,1.684,0.099,2.525,0.099c7.827,0,15.258-3.517,20.261-9.61l156.53-192.294
		c6.044,0.396,11.988,0.94,18.081,0.94c6.439,0,12.681-0.545,19.022-0.94l156.629,192.294c5.003,6.093,12.432,9.61,20.259,9.61
		c0.843,0,1.685-0.049,2.528-0.099c8.718-0.892,16.446-6.043,20.556-13.771l56.173-105.51l111.701-33.783
		c8.174-2.426,14.613-8.718,17.24-16.843C916.777,698.555,915.34,689.639,910.189,682.803L910.189,682.803z M319.732,803.47
		l-42.799-80.345c-3.27-6.142-8.867-10.699-15.504-12.731l-86.34-26.104l94.662-126.067
		c40.519,51.665,97.237,89.857,162.475,107.095L319.732,803.47L319.732,803.47z M257.614,370.139
		c0-139.095,113.237-252.331,252.381-252.331c139.193,0,252.43,113.236,252.43,252.331c0,139.193-113.237,252.429-252.43,252.429
		C370.851,622.569,257.614,509.332,257.614,370.139L257.614,370.139z M759.602,710.394c-6.638,2.032-12.235,6.589-15.504,12.731
		l-42.799,80.345L588.558,665.07c65.239-17.386,121.857-55.677,162.228-107.489l95.156,126.71L759.602,710.394L759.602,710.394z"/> </g>
    </symbol>
    <symbol id="news" viewBox="0 0 1024 1024">
        <g> <path class="st0" d="M837.885,789.062h-653.77c-13.338,0-26.129-5.298-35.56-14.73c-9.431-9.431-14.73-22.223-14.73-35.56V286.162
		c0-27.775,22.516-50.29,50.29-50.29h653.77c13.338,0,26.13,5.299,35.564,14.73c9.429,9.432,14.726,22.223,14.726,35.561v452.611
		c0,13.338-5.297,26.129-14.726,35.56C864.015,783.764,851.223,789.062,837.885,789.062L837.885,789.062z M670.143,453.149
		l167.742,166.159V311.306c0-0.226-0.125-0.402-0.125-0.628L670.143,453.149L670.143,453.149z M184.115,713.627
		c0,13.887,11.258,25.145,25.145,25.145H812.74c13.887,0,25.145-11.258,25.145-25.145v-45.01h-21.323L634.764,488.554l5.96-5.959
		l-94.168,94.143c-19.639,19.632-51.472,19.632-71.111,0l-88.208-88.184L205.438,668.618h-21.323V713.627L184.115,713.627z
		 M184.115,619.309l167.742-166.159L184.24,310.678c0,0.226-0.126,0.402-0.126,0.628V619.309L184.115,619.309z M230.834,286.162
		l262.389,237.243c4.712,4.72,11.108,7.373,17.777,7.373c6.67,0,13.066-2.653,17.777-7.373l262.389-237.243H230.834L230.834,286.162
		z"/> </g>
    </symbol>
    <symbol id="notice" viewBox="0 0 1024 1024">
        <g> <g>  <clipPath id="SVGID_2_"> <use xlink:href="#SVGID_1_" style="overflow:visible;"/> </clipPath> <path class="st0" d="M486.495,193.572v-0.119c-116.368,0-211.037,94.642-211.094,210.991c0,0.041-0.006,0.068-0.006,0.109
			c0,12.305,9.98,22.275,22.269,22.275c12.305,0,22.275-9.97,22.275-22.275c0-91.34,73.915-165.716,165.068-166.517
			c0.131,0,0.256,0.023,0.386,0.023c12.301,0,22.275-9.98,22.275-22.275C507.669,203.852,498.273,194.144,486.495,193.572
			L486.495,193.572z M486.495,193.572"/> <path class="st0" d="M842.981,404.591c0-186.146-151.237-337.616-337.293-338.025V66.56c-0.123,0-0.244,0-0.367,0.006
			c-0.125-0.006-0.244-0.006-0.369-0.006v0.006C318.901,66.97,167.658,218.445,167.658,404.591
			c0,120.565,67.114,232.188,179.536,298.61c2.401,1.418,7.973,5.242,9.958,6.78c5.515,5.611,9.623,12.073,12.697,19.257
			l50.961-6.536c-5.367-17.736-14.263-34.343-28.963-48.907c-4.851-4.812-17.527-12.777-19.161-13.742
			c-97.002-57.309-154.919-152.808-154.919-255.462c0-158.636,128.962-287.716,287.552-287.916
			c158.589,0.199,287.545,129.28,287.545,287.916c0,102.654-57.911,198.152-154.913,255.462c-1.634,0.97-14.331,8.947-19.155,13.742
			c-8.174,8.09-14.552,16.822-19.528,26.013l86.977-11.155C784.865,621.159,842.981,516.754,842.981,404.591L842.981,404.591z
			 M842.981,404.591"/> </g> <path d="M505.32,906.766c-16.006-0.074-30.87-5.044-43.183-13.474l-61.78,7.721c22.808,33.498,61.156,55.607,104.594,55.857v0.023
		c0.125,0,0.25-0.017,0.369-0.017c0.123,0,0.244,0.017,0.367,0.017v-0.023c54.621-0.312,101.207-35.177,118.949-83.885
		l-61.911,7.734C548.638,896.593,528.134,906.658,505.32,906.766L505.32,906.766z M505.32,906.766"/> <path d="M370.746,800.328l0.006,0.028l280.029-35.818v-0.028c1.361-0.131,2.735-0.375,4.096-0.767
		c11.807-3.421,18.61-15.766,15.2-27.585c-3.166-10.927-13.98-17.554-24.936-15.772l-0.006-0.035l-280.039,35.819l0.006,0.028
		c-1.124,0.148-2.247,0.346-3.371,0.675c-7.114,2.06-12.414,7.364-14.751,13.832c-1.554,4.267-1.804,9.05-0.449,13.747
		C349.629,795.147,360.04,801.707,370.746,800.328L370.746,800.328z M370.746,800.328"/> <path d="M679.143,812.612c-3.171-10.933-13.98-17.56-24.941-15.778l-0.004-0.035l-280.029,35.818v0.029
		c-1.124,0.147-2.253,0.351-3.371,0.67c-7.12,2.065-12.414,7.37-14.751,13.843c-1.548,4.267-1.81,9.05-0.447,13.747
		c3.097,10.694,13.508,17.254,24.214,15.87l0.006,0.028l280.029-35.818l-0.006-0.023c1.368-0.129,2.735-0.373,4.097-0.771
		C675.755,836.776,682.559,824.43,679.143,812.612L679.143,812.612z M679.143,812.612"/> </g>
    </symbol>
    <symbol id="left" viewBox="0 0 1024 1024">
        <g> <path class="st0" d="M435.852,257.908c0,9.988-4.993,19.973-14.979,29.96L156.227,517.561l264.646,229.693
		c14.979,14.979,14.98,34.952,4.993,49.934c-14.979,14.98-34.952,14.98-49.932,4.993L81.328,542.527
		c-9.987-4.993-14.98-14.979-14.98-29.959c0-9.988,4.993-19.973,14.98-29.96l294.606-259.653
		c14.979-14.979,39.946-9.986,49.932,4.993c4.994,14.979,9.987,24.966,9.987,29.959l0,0L435.852,257.908L435.852,257.908z
		 M865.278,257.908c0,9.988-4.993,19.973-14.98,29.96L585.652,517.561l264.646,229.693c14.98,14.979,14.981,34.952,4.994,49.934
		c-14.98,14.98-34.952,14.98-49.934,4.993L510.753,542.527c-9.987-4.993-14.98-14.979-14.98-29.959
		c0-9.988,4.994-19.973,14.98-29.96l294.605-259.653c14.98-14.979,39.948-9.986,49.934,4.993c4.992,14.98,9.987,24.966,9.987,29.959
		l0,0L865.278,257.908L865.278,257.908z"/> </g>
    </symbol>
    <symbol id="quit" viewBox="0 0 1024 1024">
        <g> <path class="st0" d="M753.136,196.042c28.035,19.935,52.955,42.52,74.757,67.746c21.804,25.233,40.493,52.487,56.067,81.767
		c15.576,29.279,27.412,60.273,35.51,92.979c8.098,32.705,12.146,65.877,12.146,99.518c0,57.935-11.056,112.288-33.171,163.062
		c-22.115,50.771-52.019,95.003-89.708,132.688c-37.692,37.694-81.923,67.594-132.692,89.71
		c-50.769,22.116-105.127,33.174-163.056,33.174c-57.314,0-111.36-11.059-162.129-33.174C300.085,901.394,255.7,871.493,217.7,833.8
		c-38.002-37.688-67.904-81.918-89.708-132.688c-21.805-50.774-32.706-105.127-32.706-163.064c0-33.014,3.892-65.41,11.681-97.18
		c7.789-31.771,18.844-61.985,33.171-90.644c14.331-28.654,32.086-55.442,53.266-80.358c21.18-24.922,44.851-47.35,71.019-67.284
		c13.707-9.968,28.5-13.705,44.388-11.214c15.881,2.496,28.809,10.28,38.778,23.361c9.97,13.086,13.706,27.724,11.216,43.922
		c-2.497,16.197-10.28,29.279-23.361,39.249c-39.249,28.654-69.309,63.849-90.18,105.591
		c-20.864,41.739-31.298,86.591-31.298,134.557c0,41.115,7.784,79.899,23.361,116.342c15.572,36.443,36.907,68.212,64.004,95.31
		c27.104,27.104,58.873,48.595,95.316,64.479c36.443,15.885,75.221,23.826,116.342,23.826c41.113,0,79.892-7.942,116.334-23.826
		c36.443-15.884,68.218-37.375,95.315-64.479c27.098-27.099,48.59-58.868,64.474-95.31c15.889-36.443,23.829-75.227,23.829-116.342
		c0-48.588-11.211-94.534-33.637-137.829c-22.428-43.297-53.888-78.958-94.38-106.991c-13.705-9.345-21.96-22.117-24.761-38.315
		c-2.806-16.197,0.464-31.149,9.807-44.856c9.347-13.081,22.118-21.025,38.314-23.825
		C724.482,183.431,739.428,186.697,753.136,196.042L753.136,196.042L753.136,196.042z M512.988,540.854
		c-16.201,0-30.061-5.763-41.585-17.287c-11.525-11.526-17.288-25.388-17.288-41.587V126.893c0-16.197,5.763-30.215,17.288-42.05
		c11.525-11.837,25.386-17.753,41.585-17.753c16.817,0,30.989,5.917,42.515,17.753c11.525,11.836,17.288,25.852,17.288,42.05v355.09
		c0,16.198-5.763,30.061-17.288,41.587C543.977,535.091,529.805,540.854,512.988,540.854L512.988,540.854L512.988,540.854z"/> </g>
    </symbol>
    <symbol id="upload" viewBox="0 0 1024 1024">
        <g> <polygon class="st0" points="433.979,485.949 579.989,485.949 579.989,282.579 731.212,282.579 506.984,79.209 282.755,282.579
		433.979,282.579 433.979,485.949 	"/> <path class="st0" d="M892.865,512.022l-125.151-83.434h-93.863l140.795,109.507H668.637l-36.502,99.078H506.984l0,0H381.833
		l-36.502-99.078H199.322l140.795-109.507h-93.863l-125.151,83.434c-36.502,26.073-26.073,83.434-26.073,83.434l10.429,83.434
		c15.644,73.005,88.648,67.79,88.648,67.79h312.877l0,0h312.877c0,0,73.005,5.215,88.648-67.79l10.429-83.434
		C918.939,595.456,929.368,538.095,892.865,512.022L892.865,512.022z"/> </g>
    </symbol></svg>